ply
format ascii 1.0
comment Created by Blender 3.0.0 - www.blender.org
element vertex 12
property float x
property float y
property float z
element face 20
property list uchar uint vertex_indices
end_header
-4.456725 0.676240 -0.275072
4.522604 -0.648513 -0.724138
3.648999 -3.460681 0.153958
4.266611 -1.898898 -2.593397
4.396571 -0.701557 1.187454
3.896389 -2.054712 3.021885
-4.392401 0.983294 -0.269152
3.713325 -3.153627 0.159878
4.586928 -0.341458 -0.718218
4.330934 -1.591843 -2.587477
4.460895 -0.394502 1.193373
3.960712 -1.747657 3.027805
3 0 1 2
3 1 0 3
3 4 0 2
3 5 0 4
3 6 7 8
3 8 9 6
3 10 7 6
3 11 10 6
3 0 11 6
3 1 9 8
3 4 11 5
3 0 6 9
3 4 7 10
3 1 7 2
3 1 3 9
3 4 10 11
3 4 2 7
3 1 8 7
3 0 9 3
3 0 5 11
